<svg width="38" height="38" viewBox="0 0 38 38" fill="none" xmlns="http://www.w3.org/2000/svg">
<path fill-rule="evenodd" clip-rule="evenodd" d="M35.1556 28.8976C36.9804 25.9298 37.9506 22.5041 37.9506 19.0045C37.9506 14.0222 35.9861 9.24406 32.4896 5.72106C28.9928 2.19807 24.2504 0.218872 19.3054 0.218872C15.6177 0.218872 12.0128 1.32063 8.94664 3.38482C5.88046 5.44902 3.49067 8.38292 2.07945 11.8156C0.668235 15.2482 0.298997 19.0254 1.01843 22.6694C1.73786 26.3134 3.51364 29.6607 6.12122 32.288C8.72879 34.9152 12.051 36.7043 15.6679 37.4293C19.2847 38.154 23.0336 37.7821 26.4405 36.3602C29.8475 34.9383 32.7595 32.5306 34.8083 29.4413C34.9246 29.2656 35.038 29.0883 35.1484 28.9094L35.1538 28.9102C35.1543 28.9059 35.1549 28.9017 35.1556 28.8976ZM19.6158 2.4761C17.2254 7.08322 15.5208 8.00111 14.2543 8.67243C13.1226 9.27921 12.3767 9.67934 11.2599 14.5561C10.2515 18.9585 7.4023 22.1847 3.50213 23.4505C3.96655 25.1262 4.69308 26.7265 5.66279 28.1888C5.71714 28.2707 5.77217 28.3523 5.82788 28.433C7.11238 25.4288 10.783 22.7947 16.1804 21.1217C19.4415 20.1091 19.324 18.441 18.746 14.7646C18.5148 13.2899 18.2538 11.6161 18.3731 9.90665C18.4887 8.26478 19.2494 6.52523 20.4595 5.13697C21.2404 4.24011 22.1868 3.50983 23.2663 2.96208C22.0768 2.66394 20.8525 2.49967 19.6158 2.4761ZM10.1598 32.7297C9.22486 32.0974 8.3568 31.3694 7.56953 30.5577C7.82081 27.2354 12.4753 24.6284 16.8405 23.2745C22.0965 21.6458 21.4943 17.7947 20.9629 14.4133C20.7392 12.9912 20.508 11.5203 20.6105 10.0682C20.8589 6.53462 24.2264 4.66902 26.6171 4.20528C27.2376 4.51654 27.8404 4.86824 28.421 5.25919C28.5 5.31241 28.5787 5.36629 28.6567 5.42082C26.9167 6.76601 24.3892 9.63861 24.526 14.8942C24.565 16.411 25.0473 17.8509 25.5578 19.375L25.559 19.3783L25.5591 19.3789C26.6478 22.6362 27.7738 26.0042 25.0369 31.0424C23.7733 33.3752 22.6729 34.294 21.056 35.4416C20.3211 35.521 19.5834 35.5502 18.848 35.5295C20.6359 33.872 22.7238 31.4442 22.4974 29.3009C22.4098 28.4837 21.9828 27.3641 20.3141 26.6165C18.6453 25.8688 17.0082 25.8444 15.4458 26.5432C12.7965 27.7304 11.0451 30.7859 10.1598 32.7297ZM26.7634 14.8416C26.6363 10.0083 29.2129 7.71421 30.4669 6.88744C31.6943 8.03528 32.7413 9.36665 33.5699 10.8355C31.9326 11.7384 30.1196 13.5086 30.1196 16.3745C30.1196 18.4015 30.9493 20.1936 31.7603 21.9238C32.5953 23.7284 33.3903 25.4472 33.3918 27.4813C32.7019 28.6451 31.8689 29.7251 30.9073 30.6939C29.3917 32.221 27.6017 33.4264 25.6438 34.2526C26.0956 33.6613 26.5425 32.9705 26.9984 32.1319C30.1966 26.2488 28.8068 22.0623 27.6899 18.6977L27.6789 18.6645C27.2035 17.2462 26.7933 16.0214 26.7634 14.8416ZM34.7889 24.4747C34.4369 23.2869 33.9347 22.1977 33.4602 21.1684L33.4421 21.1292C32.6926 19.5136 31.9841 17.9863 31.9841 16.3745C31.9841 14.2726 33.3493 13.1051 34.3983 12.5203C34.4205 12.5728 34.4425 12.6255 34.4641 12.6782C35.706 15.699 36.031 19.0229 35.3978 22.2296C35.2468 22.9946 35.043 23.7445 34.7889 24.4747ZM12.1042 33.8587C12.4066 34.0075 12.7141 34.1472 13.0264 34.2774C13.9339 34.6563 14.869 34.9503 15.8201 35.1587C17.8685 33.5393 20.4224 30.9078 20.2768 29.5395L20.2766 29.5384C20.2617 29.4005 20.2223 29.0389 19.4098 28.6754C18.3302 28.1926 17.3327 28.1682 16.3594 28.604C14.399 29.48 12.8957 32.0733 12.1042 33.8587ZM3.04683 21.2291C6.10092 20.1596 8.26372 17.6147 9.07841 14.0545C10.3556 8.46203 11.4743 7.61104 13.2027 6.68867C14.1521 6.18329 15.2841 5.5724 16.9725 2.64353C13.4852 3.15169 10.2295 4.78087 7.70877 7.32056C4.63278 10.4197 2.90252 14.6217 2.89758 19.0045C2.89758 19.7514 2.94781 20.4946 3.04683 21.2291Z" fill="#D5D8CF"/>
</svg>
