<svg width="31" height="41" viewBox="0 0 31 41" fill="none" xmlns="http://www.w3.org/2000/svg">
<path fill-rule="evenodd" clip-rule="evenodd" d="M20.8312 0.0192871L28.5219 9.16479L30.3158 26.0646L16.7412 40.3737L0.947449 26.0176L8.89995 5.72085L20.8312 0.0192871ZM9.58962 7.27903L15.933 14.0008L9.4458 23.439L2.64687 24.9987L9.58962 7.27903ZM2.93273 26.1817L14.9892 37.1407L9.45976 24.6845L2.93273 26.1817ZM10.7839 24.6829L16.8947 38.449L28.3845 26.3376L10.7839 24.6829ZM28.914 24.3173L27.4236 10.2792L17.8302 14.1446L28.914 24.3173ZM16.866 13.2218L26.9366 9.16407L20.5092 1.52082L10.3881 6.3574L16.866 13.2218ZM16.8138 14.8593L27.9426 25.0733L10.8949 23.4706L16.8138 14.8593Z" fill="#FFFFFF"/>
</svg>
