<svg width="47" height="47" viewBox="0 0 47 47" fill="none" xmlns="http://www.w3.org/2000/svg">
<path d="M31.629 9.22332C31.629 13.7883 27.923 17.489 23.3515 17.489C18.78 17.489 15.074 13.7883 15.074 9.22332C15.074 4.6583 18.78 0.957642 23.3515 0.957642C27.923 0.957642 31.629 4.6583 31.629 9.22332Z" fill="#D5D8CF"/>
<path d="M1.3655 15.3467C1.07578 15.3467 0.788369 15.3467 0.503255 15.3696C0.407302 16.2127 0.35894 17.0605 0.358398 17.909C0.358398 30.5372 10.6524 40.782 23.3515 40.782C23.6412 40.782 23.9263 40.782 24.2137 40.7614H24.5011C36.6668 40.1644 46.3446 30.1652 46.3446 17.9159C46.3439 17.0675 46.2963 16.2197 46.202 15.3765C34.0364 15.9735 24.3586 25.9727 24.3586 38.222C24.3586 25.5893 14.0646 15.3467 1.3655 15.3467Z" fill="#D5D8CF"/>
<path d="M24.5241 41.2137H24.1815C24.0484 41.2137 23.9125 41.2183 23.7752 41.2227C23.635 41.2275 23.4931 41.2321 23.3515 41.2321C17.9504 41.2335 12.7141 39.3751 8.52556 35.9698C4.33701 32.5648 1.45247 27.8217 0.358398 22.5402C0.588329 36.0224 10.7973 46.878 23.3515 46.878C35.8965 46.878 46.0939 36.0339 46.3446 22.5585C45.3025 27.6481 42.5914 32.2457 38.6396 35.6243C34.6875 39.0029 29.7208 40.9696 24.5241 41.2137Z" fill="#D5D8CF"/>
</svg>
