<svg width="39" height="34" viewBox="0 0 39 34" fill="none" xmlns="http://www.w3.org/2000/svg">
<path d="M14.9761 14.9406C16.2548 14.9406 17.2914 13.9126 17.2914 12.6445C17.2914 11.3765 16.2548 10.3485 14.9761 10.3485C13.6974 10.3485 12.6608 11.3765 12.6608 12.6445C12.6608 13.9126 13.6974 14.9406 14.9761 14.9406Z" fill="#D5D8CF"/>
<path d="M14.5901 28.334C15.8688 28.334 16.9054 27.3059 16.9054 26.038C16.9054 24.77 15.8688 23.7419 14.5901 23.7419C13.3114 23.7419 12.2748 24.77 12.2748 26.038C12.2748 27.3059 13.3114 28.334 14.5901 28.334Z" fill="#D5D8CF"/>
<path d="M12.6606 8.81779C13.0868 8.81779 13.4323 8.47513 13.4323 8.05245C13.4323 7.62977 13.0868 7.28711 12.6606 7.28711C12.2343 7.28711 11.8888 7.62977 11.8888 8.05245C11.8888 8.47513 12.2343 8.81779 12.6606 8.81779Z" fill="#D5D8CF"/>
<path d="M11.6959 19.5325C12.0156 19.5325 12.2747 19.2756 12.2747 18.9585C12.2747 18.6415 12.0156 18.3845 11.6959 18.3845C11.3762 18.3845 11.1171 18.6415 11.1171 18.9585C11.1171 19.2756 11.3762 19.5325 11.6959 19.5325Z" fill="#D5D8CF"/>
<path d="M26.5526 20.1065C26.8723 20.1065 27.1314 19.8495 27.1314 19.5325C27.1314 19.2155 26.8723 18.9585 26.5526 18.9585C26.2329 18.9585 25.9738 19.2155 25.9738 19.5325C25.9738 19.8495 26.2329 20.1065 26.5526 20.1065Z" fill="#D5D8CF"/>
<path d="M20.9571 28.7167C21.2768 28.7167 21.536 28.4598 21.536 28.1427C21.536 27.8257 21.2768 27.5687 20.9571 27.5687C20.6374 27.5687 20.3783 27.8257 20.3783 28.1427C20.3783 28.4598 20.6374 28.7167 20.9571 28.7167Z" fill="#D5D8CF"/>
<path d="M19.6066 16.8539C20.0328 16.8539 20.3784 16.5113 20.3784 16.0886C20.3784 15.6659 20.0328 15.3232 19.6066 15.3232C19.1804 15.3232 18.8348 15.6659 18.8348 16.0886C18.8348 16.5113 19.1804 16.8539 19.6066 16.8539Z" fill="#D5D8CF"/>
<path d="M16.7125 21.0632C17.4585 21.0632 18.0631 20.4636 18.0631 19.7239C18.0631 18.9842 17.4585 18.3845 16.7125 18.3845C15.9666 18.3845 15.3619 18.9842 15.3619 19.7239C15.3619 20.4636 15.9666 21.0632 16.7125 21.0632Z" fill="#D5D8CF"/>
<path d="M25.009 8.05237C25.6484 8.05237 26.1666 7.53839 26.1666 6.90436C26.1666 6.27033 25.6484 5.75635 25.009 5.75635C24.3696 5.75635 23.8513 6.27033 23.8513 6.90436C23.8513 7.53839 24.3696 8.05237 25.009 8.05237Z" fill="#D5D8CF"/>
<path d="M24.5267 16.6626C26.285 16.6626 27.7103 15.2491 27.7103 13.5055C27.7103 11.762 26.285 10.3485 24.5267 10.3485C22.7684 10.3485 21.3431 11.762 21.3431 13.5055C21.3431 15.2491 22.7684 16.6626 24.5267 16.6626Z" fill="#D5D8CF"/>
<path d="M19.0277 9.58307C19.9869 9.58307 20.7642 8.81211 20.7642 7.86106C20.7642 6.91 19.9869 6.13904 19.0277 6.13904C18.0687 6.13904 17.2913 6.91 17.2913 7.86106C17.2913 8.81211 18.0687 9.58307 19.0277 9.58307Z" fill="#D5D8CF"/>
<path d="M23.2724 26.038C24.8708 26.038 26.1666 24.753 26.1666 23.168C26.1666 21.583 24.8708 20.298 23.2724 20.298C21.6741 20.298 20.3783 21.583 20.3783 23.168C20.3783 24.753 21.6741 26.038 23.2724 26.038Z" fill="#D5D8CF"/>
<path d="M6.72954 33.1174C6.02466 33.1331 5.32129 33.0461 4.6419 32.8591C4.15786 32.7237 3.72069 32.4589 3.37812 32.0938C3.0156 31.6792 2.75827 31.1844 2.62757 30.6511C2.43706 29.8722 2.34887 29.0722 2.36517 28.2709V21.9569C2.36517 20.7821 2.18187 19.9268 1.80564 19.3451C1.45017 18.8236 0.921836 18.4418 0.312256 18.266V15.0764C1.34064 14.734 2.37096 13.8615 2.37096 11.7453V5.43124C2.37096 3.63651 2.70475 2.36987 3.36076 1.64471C4.01676 0.919551 5.17249 0.590454 6.82987 0.590454H8.9947V3.73983H8.92138C8.4938 3.73499 8.06639 3.75929 7.64217 3.81254C7.2585 3.85421 6.89725 4.01262 6.60799 4.266C6.33698 4.53531 6.15928 4.88306 6.10055 5.25903C6.03007 5.67042 5.99842 6.08742 6.00601 6.50463V12.0801C6.01162 12.6372 5.97874 13.194 5.90761 13.7467C5.86165 14.1019 5.76213 14.4482 5.6124 14.7741C5.47375 15.0625 5.28127 15.3222 5.04515 15.5395C4.71437 15.8404 4.36373 16.1191 3.99554 16.3737L3.27586 16.8788L4.01098 17.361C4.37155 17.5889 4.7049 17.8565 5.00463 18.1589C5.24533 18.4095 5.44458 18.6961 5.59504 19.0084C5.75329 19.3465 5.8587 19.7066 5.90761 20.076C5.97568 20.5936 6.0079 21.1154 6.00408 21.6373V27.2128C5.99731 27.6192 6.02897 28.0254 6.09862 28.4259C6.1548 28.7917 6.32166 29.1319 6.57712 29.4017C6.84984 29.6598 7.19614 29.828 7.56885 29.8839C8.00503 29.9543 8.44672 29.9857 8.88858 29.9776H8.9947V33.1174H6.72954Z" fill="#D5D8CF"/>
<path d="M32.4835 33.1173C33.1884 33.133 33.8918 33.046 34.5712 32.859C35.0553 32.7236 35.4925 32.4587 35.835 32.0937C36.1948 31.6794 36.4501 31.1864 36.5797 30.6548C36.7702 29.8759 36.8585 29.0759 36.8421 28.2746V21.9606C36.8421 20.7858 37.0254 19.9305 37.4017 19.3488C37.7576 18.824 38.2882 18.44 38.9008 18.264V15.0763C37.8724 14.7338 36.8421 13.8613 36.8421 11.7452V5.43112C36.8421 3.63639 36.5083 2.36975 35.8523 1.64459C35.1963 0.919431 34.0406 0.584595 32.3793 0.584595H30.2184V3.73971H30.2917C30.7193 3.73487 31.1466 3.75917 31.5709 3.81242C31.9545 3.85409 32.3159 4.0125 32.6051 4.26588C32.8762 4.53519 33.0539 4.88294 33.1125 5.25891C33.183 5.6703 33.2146 6.0873 33.2071 6.50451V12.08C33.1995 12.637 33.2304 13.1938 33.2997 13.7465C33.3456 14.1018 33.4452 14.4481 33.5949 14.774C33.7336 15.0624 33.926 15.3221 34.1621 15.5394C34.4928 15.8403 34.8436 16.1189 35.2118 16.3736L35.9314 16.8787L35.1963 17.3609C34.8357 17.5887 34.5025 17.8564 34.2027 18.1587C33.9621 18.4094 33.7627 18.696 33.6123 19.0083C33.4533 19.3487 33.3479 19.7114 33.2997 20.0836C33.2333 20.5981 33.2024 21.1166 33.2071 21.6353V27.2108C33.2138 27.6172 33.1822 28.0234 33.1125 28.4239C33.0664 28.7947 32.8966 29.1395 32.6302 29.4035C32.3639 29.6677 32.0162 29.8361 31.6423 29.8818C31.2061 29.9523 30.7644 29.9836 30.3226 29.9756H30.2184V33.1173H32.4835Z" fill="#D5D8CF"/>
</svg>
